<svg viewBox="0 0 369.6551724137931 66.6354250036273" preserveAspectRatio="xMidYMid meet" class="css-8aabad" id="gcfbhfhe"><defs id="SvgjsDefs2694"></defs><g id="SvgjsG2695" featurekey="2ou6gm-0" transform="matrix(1.5424873436901416,0,0,1.5424873436901416,861.7876036029173,-585.2197358544222)" fill="#111"><path xmlns="http://www.w3.org/2000/svg" d="M-522.3,401.7l-6.5-2v-11.6c0-1.4-1.1-2.5-2.5-2.5h-3.7c-1.4,0-2.5,1.1-2.5,2.5v9l-3.1-0.9v-14.3c0-1.4-1.1-2.5-2.5-2.5  h-3.7c-1.4,0-2.5,1.1-2.5,2.5v11.6l-3.6-1.1c-0.5-0.2-1-0.3-1.5-0.3c-2.4,0-4.3,1.9-4.3,4.3v9.4v12.5c0,2.4,1.9,4.3,4.3,4.3h9.4h0  h11.7h0h9.4c2.4,0,4.3-1.9,4.3-4.3v-12.5v0C-519.4,404-520.6,402.4-522.3,401.7z M-521.9,418.3c0,1.1-0.9,1.9-1.9,1.9h-5.5h-3.9  h-3.9h-4h-3.9h-3.9h-5.5c-1.1,0-1.9-0.9-1.9-1.9V407h7h2.4h3.8h2.4h3.1h2.4h3.8h2.4h7V418.3z M-556.1,396.4c0-1.1,0.9-1.9,1.9-1.9  c0.2,0,0.4,0,0.7,0.1l4.3,1.3l2.4,0.8l3.8,1.2l2.4,0.7l3.1,0.9l2.4,0.8l3.8,1.2l2.4,0.7l5.7,1.8c0.3,0.1,0.6,0.3,0.8,0.6h-6.5h-2.4  h-3.8h-2.4h-3.1h-2.4h-3.8h-2.4h-7V396.4z M-535,388l3.8,0V399l-3.8-1.2L-535,388z M-546.7,381.8l3.8,0v13.5l-3.8-1.2L-546.7,381.8z  "></path><path xmlns="http://www.w3.org/2000/svg" d="M-530,411c-0.7,0-1.2,0.5-1.2,1.2v3.1c0,0.7,0.5,1.2,1.2,1.2c0.7,0,1.2-0.5,1.2-1.2v-3.1C-528.8,411.6-529.3,411-530,411z"></path><path xmlns="http://www.w3.org/2000/svg" d="M-536.3,411c-0.7,0-1.2,0.5-1.2,1.2v3.1c0,0.7,0.5,1.2,1.2,1.2c0.7,0,1.2-0.5,1.2-1.2v-3.1  C-535.1,411.6-535.6,411-536.3,411z"></path><path xmlns="http://www.w3.org/2000/svg" d="M-541.7,411c-0.7,0-1.2,0.5-1.2,1.2v3.1c0,0.7,0.5,1.2,1.2,1.2c0.7,0,1.2-0.5,1.2-1.2v-3.1  C-540.5,411.6-541.1,411-541.7,411z"></path><path xmlns="http://www.w3.org/2000/svg" d="M-548,411c-0.7,0-1.2,0.5-1.2,1.2v3.1c0,0.7,0.5,1.2,1.2,1.2s1.2-0.5,1.2-1.2v-3.1C-546.8,411.6-547.3,411-548,411z"></path></g><g id="SvgjsG2696" featurekey="kZnDdN-0" transform="matrix(1.9312920433735359,0,0,1.9312920433735359,77.68245037677238,8.798505780068767)" fill="#111"><path d="M9.46 7.5 l-6.56 0 l0 4.74 l5.42 0 l0 1.42 l-5.42 0 l0 6.34 l-1.7 0 l0 -14 l8.26 0 l0 1.5 z M21.28 20 l-1.44 -3.3 l-7.48 0 l-1.44 3.3 l-1.76 0 l6.24 -14 l1.38 0 l6.26 14 l-1.76 0 z M12.98 15.3 l6.24 0 l-3.12 -7.12 z M36.199999999999996 18.5 c-1.28 1.1 -2.9 1.7 -4.7 1.7 c-3.64 0 -7.16 -2.96 -7.16 -7.2 s3.52 -7.2 7.16 -7.2 c1.78 0 3.38 0.6 4.64 1.66 l-1.02 1.16 c-0.98 -0.78 -2.24 -1.24 -3.5 -1.24 c-2.86 0 -5.56 2.32 -5.56 5.62 s2.7 5.62 5.56 5.62 c1.28 0 2.56 -0.48 3.54 -1.28 z M47.14 6 l0 1.56 l-3.88 0 l0 12.44 l-1.66 0 l0 -12.44 l-3.9 0 l0 -1.56 l9.44 0 z M56 5.800000000000001 c3.64 0 7.16 2.96 7.16 7.2 s-3.52 7.2 -7.16 7.2 c-3.66 0 -7.16 -2.96 -7.16 -7.2 s3.5 -7.2 7.16 -7.2 z M56 18.62 c2.74 0 5.44 -2.32 5.44 -5.62 s-2.7 -5.62 -5.44 -5.62 c-2.76 0 -5.44 2.32 -5.44 5.62 s2.68 5.62 5.44 5.62 z M75.54 20 l-1.8 0 l-3.54 -5.04 l-0.38 0 l-2.9 0 l0 5.04 l-1.66 0 l0 -14 l4.56 0 c3.14 0 4.96 1.92 4.96 4.52 c0 2 -1.08 3.56 -3 4.16 z M66.92 7.5600000000000005 l0 5.92 l2.86 0 c2.02 0 3.34 -1.04 3.34 -2.96 c0 -1.94 -1.32 -2.96 -3.34 -2.96 l-2.86 0 z M88.84 6 l-5.22 7.54 l0 6.46 l-1.66 0 l0 -6.46 l-5.22 -7.54 l1.9 0 l4.14 6.02 l4.16 -6.02 l1.9 0 z M104.9 7.5 l-6.56 0 l0 4.74 l5.42 0 l0 1.42 l-5.42 0 l0 6.34 l-1.7 0 l0 -14 l8.26 0 l0 1.5 z M108.46 18.44 l6.28 0 l0 1.56 l-7.94 0 l0 -14 l1.66 0 l0 12.44 z M123.6 5.800000000000001 c3.64 0 7.16 2.96 7.16 7.2 s-3.52 7.2 -7.16 7.2 c-3.66 0 -7.16 -2.96 -7.16 -7.2 s3.5 -7.2 7.16 -7.2 z M123.6 18.62 c2.74 0 5.44 -2.32 5.44 -5.62 s-2.7 -5.62 -5.44 -5.62 c-2.76 0 -5.44 2.32 -5.44 5.62 s2.68 5.62 5.44 5.62 z M151.18 6 l-4.52 14 l-1.08 0 l-3.86 -10.94 l-3.84 10.94 l-1.08 0 l-4.54 -14 l1.72 0 l3.42 10.58 l3.74 -10.58 l1.16 0 l3.76 10.58 l3.42 -10.58 l1.7 0 z"></path></g></svg>